<svg width="442" height="390" viewBox="0 0 442 390" fill="none" xmlns="http://www.w3.org/2000/svg">
<path d="M189.019 324.269C272.587 324.269 340.332 256.778 340.332 173.525C340.332 90.2715 272.587 22.7812 189.019 22.7812C105.452 22.7812 37.707 90.2715 37.707 173.525C37.707 256.778 105.452 324.269 189.019 324.269Z" stroke="#676767" stroke-opacity="0.2" stroke-width="3.15" stroke-miterlimit="10" stroke-linecap="round"/>
<ellipse cx="333.929" cy="173.676" rx="87.1281" ry="86.8007" fill="#FAFAFA"/>
<path d="M333.587 103.287C318.396 103.345 303.63 108.288 291.487 117.38C279.344 126.473 270.473 139.228 266.193 153.749C265.132 157.443 262.895 160.694 259.819 163.012C256.743 165.331 252.995 166.592 249.138 166.605H249.064C244.118 166.587 239.261 165.286 234.972 162.831C230.683 160.376 227.109 156.852 224.602 152.604C219.304 143.638 210.795 137.002 200.787 134.031C190.778 131.059 180.011 131.972 170.651 136.585C167.177 138.265 163.263 138.82 159.457 138.171C155.652 137.523 152.145 135.704 149.429 132.97L149.09 132.632C145.725 129.232 143.384 124.96 142.333 120.302C141.282 115.643 141.564 110.784 143.146 106.277C145.75 98.6511 146.873 90.601 146.453 82.557C144.849 51.1201 116.964 23.8095 85.3758 22.7306C76.6917 22.4257 68.0374 23.9023 59.9501 27.0687C51.8628 30.2351 44.515 35.0237 38.3629 41.1372C32.2108 47.2508 27.3856 54.5588 24.1869 62.6077C20.9882 70.6567 19.4842 79.2747 19.7683 87.9269C20.8017 119.94 48.8022 147.893 80.9447 148.98C93.2774 149.42 105.469 146.251 116.014 139.863C119.805 137.529 124.233 136.433 128.679 136.729C133.126 137.024 137.368 138.696 140.815 141.51L141.303 141.914C144.478 144.525 146.858 147.969 148.172 151.856C149.487 155.743 149.685 159.919 148.743 163.912C147.245 170.152 147.231 176.654 148.702 182.9C150.173 189.146 153.089 194.963 157.217 199.887C158.556 201.5 159.294 203.524 159.304 205.617C159.315 207.71 158.598 209.742 157.275 211.368L156.886 211.846C155.439 213.609 153.459 214.86 151.241 215.412C149.023 215.964 146.686 215.788 144.576 214.91C135.613 211.238 125.993 209.425 116.303 209.581C77.1253 210.133 45.4045 242.459 45.6938 281.49C45.7665 290.933 47.719 300.268 51.4384 308.954C55.1578 317.64 60.5701 325.505 67.3619 332.093C74.1536 338.681 82.1898 343.86 91.0051 347.332C99.8204 350.804 109.239 352.499 118.717 352.319C156.969 351.611 188.21 320.545 188.987 282.429C189.201 272.669 187.397 262.971 183.686 253.937C179.976 244.902 174.438 236.726 167.418 229.916C165.766 228.333 164.671 226.261 164.297 224.008C163.923 221.755 164.29 219.442 165.343 217.413L165.451 217.199C166.448 215.306 168.086 213.825 170.074 213.018C172.062 212.212 174.272 212.132 176.314 212.793C179.21 213.723 182.202 214.328 185.234 214.597C193.03 215.307 200.869 213.799 207.84 210.249C214.811 206.7 220.629 201.253 224.618 194.542C227.119 190.267 230.697 186.717 234.997 184.241C239.298 181.765 244.172 180.45 249.138 180.426V180.426C253.001 180.447 256.753 181.717 259.83 184.044C262.907 186.371 265.142 189.63 266.202 193.331C271.028 209.681 281.656 223.725 296.105 232.847C310.555 241.969 327.84 245.547 344.741 242.914C361.642 240.281 377.006 231.617 387.97 218.535C398.934 205.454 404.751 188.848 404.336 171.811C403.435 133.818 371.756 103.147 333.587 103.287Z" stroke="#F8F8F8" stroke-width="6" stroke-miterlimit="10"/>
<path d="M333.587 103.287C318.396 103.345 303.63 108.288 291.487 117.38C279.344 126.473 270.473 139.228 266.193 153.749C265.132 157.443 262.895 160.694 259.819 163.012C256.743 165.331 252.995 166.592 249.138 166.605H249.064C244.118 166.587 239.261 165.286 234.972 162.831C230.683 160.376 227.109 156.852 224.602 152.604C219.304 143.638 210.795 137.002 200.787 134.031C190.778 131.059 180.011 131.972 170.651 136.585C167.177 138.265 163.263 138.82 159.457 138.171C155.652 137.523 152.145 135.704 149.429 132.97L149.09 132.632C145.725 129.232 143.384 124.96 142.333 120.302C141.282 115.643 141.564 110.784 143.146 106.277C145.75 98.6511 146.873 90.601 146.453 82.557C144.849 51.1201 116.964 23.8095 85.3758 22.7306C76.6917 22.4257 68.0374 23.9023 59.9501 27.0687C51.8628 30.2351 44.515 35.0237 38.3629 41.1372C32.2108 47.2508 27.3856 54.5588 24.1869 62.6077C20.9882 70.6567 19.4842 79.2747 19.7683 87.9269C20.8017 119.94 48.8022 147.893 80.9446 148.98C93.2774 149.42 105.469 146.251 116.014 139.863C119.805 137.529 124.233 136.433 128.679 136.729C133.126 137.024 137.368 138.696 140.815 141.51L141.303 141.914C144.478 144.525 146.858 147.969 148.172 151.856C149.487 155.743 149.685 159.919 148.743 163.912C147.245 170.152 147.231 176.654 148.702 182.9C150.173 189.146 153.089 194.963 157.217 199.887C158.556 201.5 159.294 203.524 159.304 205.617C159.315 207.71 158.598 209.742 157.275 211.368L156.886 211.846C155.439 213.609 153.459 214.86 151.241 215.412C149.023 215.964 146.686 215.788 144.576 214.91C135.613 211.238 125.993 209.425 116.303 209.581C77.1253 210.133 45.4045 242.459 45.6938 281.49C45.7665 290.933 47.719 300.268 51.4384 308.954C55.1578 317.64 60.5701 325.505 67.3619 332.093C74.1536 338.681 82.1898 343.86 91.0051 347.332C99.8204 350.804 109.239 352.499 118.717 352.319C156.969 351.611 188.21 320.545 188.987 282.429C189.201 272.669 187.397 262.971 183.686 253.937C179.976 244.902 174.438 236.726 167.418 229.916C165.766 228.333 164.671 226.261 164.297 224.008C163.923 221.755 164.29 219.442 165.343 217.413L165.451 217.199C166.448 215.306 168.086 213.825 170.074 213.018C172.062 212.212 174.272 212.132 176.314 212.793C179.21 213.723 182.202 214.328 185.234 214.597C193.03 215.307 200.869 213.799 207.84 210.249C214.811 206.7 220.629 201.253 224.618 194.542C227.119 190.267 230.697 186.717 234.997 184.241C239.298 181.765 244.172 180.45 249.138 180.426C253.001 180.447 256.753 181.717 259.83 184.044C262.907 186.371 265.142 189.63 266.202 193.331C271.028 209.681 281.656 223.725 296.105 232.847C310.555 241.969 327.84 245.547 344.741 242.914C361.642 240.281 377.006 231.617 387.97 218.535C398.934 205.454 404.751 188.848 404.336 171.811C403.435 133.818 371.756 103.147 333.587 103.287Z" fill="#C9D3D5"/>
<g filter="url(#filter0_dd_5841_6670)">
<ellipse cx="117.17" cy="280.589" rx="64.8148" ry="64.5713" fill="white"/>
</g>
<path d="M89.253 306.529C88.553 306.529 87.9396 306.376 87.413 306.069C86.893 305.763 86.483 305.339 86.183 304.799C85.8896 304.253 85.743 303.623 85.743 302.909C85.743 302.196 85.8896 301.569 86.183 301.029C86.483 300.483 86.893 300.056 87.413 299.749C87.9396 299.443 88.553 299.289 89.253 299.289C89.9463 299.289 90.5563 299.443 91.083 299.749C91.6096 300.056 92.0196 300.483 92.313 301.029C92.6063 301.569 92.753 302.196 92.753 302.909C92.753 303.623 92.6063 304.253 92.313 304.799C92.0196 305.339 91.6096 305.763 91.083 306.069C90.5563 306.376 89.9463 306.529 89.253 306.529ZM89.253 305.379C89.9196 305.379 90.4496 305.159 90.843 304.719C91.243 304.279 91.443 303.676 91.443 302.909C91.443 302.143 91.243 301.539 90.843 301.099C90.4496 300.659 89.9196 300.439 89.253 300.439C88.5863 300.439 88.053 300.659 87.653 301.099C87.253 301.539 87.053 302.143 87.053 302.909C87.053 303.676 87.253 304.279 87.653 304.719C88.053 305.159 88.5863 305.379 89.253 305.379ZM94.0831 306.409V302.519H93.4031V301.449H94.0831V300.869C94.0831 300.269 94.2331 299.843 94.5331 299.589C94.8398 299.336 95.2531 299.209 95.7731 299.209H96.3231V300.299H95.9731C95.7531 300.299 95.5965 300.343 95.5031 300.429C95.4098 300.516 95.3631 300.663 95.3631 300.869V301.449H96.4331V302.519H95.3631V306.409H94.0831ZM97.6769 306.409V302.519H96.9969V301.449H97.6769V300.869C97.6769 300.269 97.8269 299.843 98.1269 299.589C98.4335 299.336 98.8469 299.209 99.3669 299.209H99.9169V300.299H99.5669C99.3469 300.299 99.1902 300.343 99.0969 300.429C99.0035 300.516 98.9569 300.663 98.9569 300.869V301.449H100.027V302.519H98.9569V306.409H97.6769ZM103.981 306.529C103.607 306.529 103.281 306.459 103.001 306.319C102.721 306.179 102.494 305.983 102.321 305.729L102.181 306.409H101.041V299.209H102.321V302.159C102.481 301.939 102.691 301.746 102.951 301.579C103.217 301.413 103.561 301.329 103.981 301.329C104.447 301.329 104.864 301.443 105.231 301.669C105.597 301.896 105.887 302.206 106.101 302.599C106.314 302.993 106.421 303.439 106.421 303.939C106.421 304.439 106.314 304.886 106.101 305.279C105.887 305.666 105.597 305.973 105.231 306.199C104.864 306.419 104.447 306.529 103.981 306.529ZM103.711 305.409C104.117 305.409 104.454 305.273 104.721 304.999C104.987 304.726 105.121 304.373 105.121 303.939C105.121 303.506 104.987 303.149 104.721 302.869C104.454 302.589 104.117 302.449 103.711 302.449C103.297 302.449 102.957 302.589 102.691 302.869C102.431 303.143 102.301 303.496 102.301 303.929C102.301 304.363 102.431 304.719 102.691 304.999C102.957 305.273 103.297 305.409 103.711 305.409ZM109.944 306.529C109.464 306.529 109.031 306.419 108.644 306.199C108.264 305.979 107.961 305.676 107.734 305.289C107.514 304.896 107.404 304.443 107.404 303.929C107.404 303.416 107.517 302.966 107.744 302.579C107.971 302.186 108.274 301.879 108.654 301.659C109.041 301.439 109.474 301.329 109.954 301.329C110.427 301.329 110.854 301.439 111.234 301.659C111.621 301.879 111.924 302.186 112.144 302.579C112.371 302.966 112.484 303.416 112.484 303.929C112.484 304.443 112.371 304.896 112.144 305.289C111.924 305.676 111.621 305.979 111.234 306.199C110.847 306.419 110.417 306.529 109.944 306.529ZM109.944 305.419C110.277 305.419 110.567 305.296 110.814 305.049C111.061 304.796 111.184 304.423 111.184 303.929C111.184 303.436 111.061 303.066 110.814 302.819C110.567 302.566 110.281 302.439 109.954 302.439C109.614 302.439 109.321 302.566 109.074 302.819C108.834 303.066 108.714 303.436 108.714 303.929C108.714 304.423 108.834 304.796 109.074 305.049C109.321 305.296 109.611 305.419 109.944 305.419ZM115.339 306.529C114.912 306.529 114.562 306.463 114.289 306.329C114.015 306.189 113.812 306.006 113.679 305.779C113.545 305.553 113.479 305.303 113.479 305.029C113.479 304.569 113.659 304.196 114.019 303.909C114.379 303.623 114.919 303.479 115.639 303.479H116.899V303.359C116.899 303.019 116.802 302.769 116.609 302.609C116.415 302.449 116.175 302.369 115.889 302.369C115.629 302.369 115.402 302.433 115.209 302.559C115.015 302.679 114.895 302.859 114.849 303.099H113.599C113.632 302.739 113.752 302.426 113.959 302.159C114.172 301.893 114.445 301.689 114.779 301.549C115.112 301.403 115.485 301.329 115.899 301.329C116.605 301.329 117.162 301.506 117.569 301.859C117.975 302.213 118.179 302.713 118.179 303.359V306.409H117.089L116.969 305.609C116.822 305.876 116.615 306.096 116.349 306.269C116.089 306.443 115.752 306.529 115.339 306.529ZM115.629 305.529C115.995 305.529 116.279 305.409 116.479 305.169C116.685 304.929 116.815 304.633 116.869 304.279H115.779C115.439 304.279 115.195 304.343 115.049 304.469C114.902 304.589 114.829 304.739 114.829 304.919C114.829 305.113 114.902 305.263 115.049 305.369C115.195 305.476 115.389 305.529 115.629 305.529ZM119.4 306.409V301.449H120.54L120.66 302.379C120.84 302.059 121.083 301.806 121.39 301.619C121.703 301.426 122.07 301.329 122.49 301.329V302.679H122.13C121.85 302.679 121.6 302.723 121.38 302.809C121.16 302.896 120.987 303.046 120.86 303.259C120.74 303.473 120.68 303.769 120.68 304.149V306.409H119.4ZM125.557 306.529C125.09 306.529 124.674 306.416 124.307 306.189C123.94 305.963 123.65 305.653 123.437 305.259C123.224 304.866 123.117 304.419 123.117 303.919C123.117 303.419 123.224 302.976 123.437 302.589C123.65 302.196 123.94 301.889 124.307 301.669C124.674 301.443 125.09 301.329 125.557 301.329C125.93 301.329 126.257 301.399 126.537 301.539C126.817 301.679 127.044 301.876 127.217 302.129V299.209H128.497V306.409H127.357L127.217 305.699C127.057 305.919 126.844 306.113 126.577 306.279C126.317 306.446 125.977 306.529 125.557 306.529ZM125.827 305.409C126.24 305.409 126.577 305.273 126.837 304.999C127.104 304.719 127.237 304.363 127.237 303.929C127.237 303.496 127.104 303.143 126.837 302.869C126.577 302.589 126.24 302.449 125.827 302.449C125.42 302.449 125.084 302.586 124.817 302.859C124.55 303.133 124.417 303.486 124.417 303.919C124.417 304.353 124.55 304.709 124.817 304.989C125.084 305.269 125.42 305.409 125.827 305.409ZM130.49 300.679C130.257 300.679 130.064 300.609 129.91 300.469C129.764 300.329 129.69 300.153 129.69 299.939C129.69 299.726 129.764 299.553 129.91 299.419C130.064 299.279 130.257 299.209 130.49 299.209C130.724 299.209 130.914 299.279 131.06 299.419C131.214 299.553 131.29 299.726 131.29 299.939C131.29 300.153 131.214 300.329 131.06 300.469C130.914 300.609 130.724 300.679 130.49 300.679ZM129.85 306.409V301.449H131.13V306.409H129.85ZM132.466 306.409V301.449H133.596L133.696 302.289C133.85 301.996 134.07 301.763 134.356 301.589C134.65 301.416 134.993 301.329 135.386 301.329C136 301.329 136.476 301.523 136.816 301.909C137.156 302.296 137.326 302.863 137.326 303.609V306.409H136.046V303.729C136.046 303.303 135.96 302.976 135.786 302.749C135.613 302.523 135.343 302.409 134.976 302.409C134.616 302.409 134.32 302.536 134.086 302.789C133.86 303.043 133.746 303.396 133.746 303.849V306.409H132.466ZM140.65 304.929C140.41 304.929 140.187 304.903 139.98 304.849L139.61 305.219C139.724 305.279 139.877 305.329 140.07 305.369C140.264 305.409 140.577 305.449 141.01 305.489C141.67 305.549 142.15 305.706 142.45 305.959C142.75 306.213 142.9 306.563 142.9 307.009C142.9 307.303 142.82 307.579 142.66 307.839C142.5 308.106 142.254 308.319 141.92 308.479C141.587 308.646 141.16 308.729 140.64 308.729C139.934 308.729 139.364 308.596 138.93 308.329C138.497 308.069 138.28 307.676 138.28 307.149C138.28 306.703 138.497 306.316 138.93 305.989C138.797 305.929 138.68 305.866 138.58 305.799C138.487 305.733 138.404 305.663 138.33 305.589V305.359L139.2 304.439C138.814 304.099 138.62 303.663 138.62 303.129C138.62 302.796 138.7 302.493 138.86 302.219C139.027 301.946 139.26 301.729 139.56 301.569C139.86 301.409 140.224 301.329 140.65 301.329C140.93 301.329 141.19 301.369 141.43 301.449H143.31V302.229L142.46 302.289C142.594 302.543 142.66 302.823 142.66 303.129C142.66 303.463 142.58 303.766 142.42 304.039C142.26 304.313 142.027 304.529 141.72 304.689C141.42 304.849 141.064 304.929 140.65 304.929ZM140.65 303.949C140.91 303.949 141.124 303.879 141.29 303.739C141.464 303.599 141.55 303.399 141.55 303.139C141.55 302.879 141.464 302.679 141.29 302.539C141.124 302.399 140.91 302.329 140.65 302.329C140.377 302.329 140.157 302.399 139.99 302.539C139.824 302.679 139.74 302.879 139.74 303.139C139.74 303.399 139.824 303.599 139.99 303.739C140.157 303.879 140.377 303.949 140.65 303.949ZM139.45 307.019C139.45 307.266 139.564 307.449 139.79 307.569C140.024 307.696 140.307 307.759 140.64 307.759C140.96 307.759 141.22 307.693 141.42 307.559C141.62 307.433 141.72 307.259 141.72 307.039C141.72 306.859 141.654 306.709 141.52 306.589C141.394 306.469 141.137 306.396 140.75 306.369C140.477 306.349 140.224 306.319 139.99 306.279C139.797 306.386 139.657 306.503 139.57 306.629C139.49 306.756 139.45 306.886 139.45 307.019Z" fill="#646D7A"/>
<path d="M109.199 262.065V260.307V257.755C109.199 255.95 110.039 254.219 111.533 252.943C113.028 251.667 115.055 250.95 117.168 250.95C119.282 250.95 121.309 251.667 122.803 252.943C124.298 254.219 125.137 255.95 125.137 257.755V262.065" stroke="#0F1E35" stroke-width="2" stroke-linecap="round" stroke-linejoin="round"/>
<path d="M112.387 262.065V258.663C112.387 257.459 112.89 256.306 113.787 255.455C114.684 254.604 115.9 254.126 117.168 254.126V254.126C118.436 254.126 119.652 254.604 120.549 255.455C121.446 256.306 121.95 257.459 121.95 258.663V262.065" stroke="#0F1E35" stroke-width="2" stroke-linecap="round" stroke-linejoin="round"/>
<mask id="path-9-inside-1_5841_6670" fill="white">
<path fill-rule="evenodd" clip-rule="evenodd" d="M108.215 261.271C106.558 261.271 105.215 262.615 105.215 264.271V275.737C105.215 277.394 106.558 278.737 108.215 278.737H126.122C127.779 278.737 129.122 277.394 129.122 275.737V264.271C129.122 262.615 127.779 261.271 126.122 261.271H108.215ZM118.911 268.142L119.99 271.904C120.173 272.543 119.694 273.18 119.029 273.18H115.308C114.643 273.18 114.163 272.543 114.347 271.904L115.426 268.142C115.649 267.365 116.36 266.829 117.168 266.829C117.977 266.829 118.688 267.365 118.911 268.142Z"/>
</mask>
<path fill-rule="evenodd" clip-rule="evenodd" d="M108.215 261.271C106.558 261.271 105.215 262.615 105.215 264.271V275.737C105.215 277.394 106.558 278.737 108.215 278.737H126.122C127.779 278.737 129.122 277.394 129.122 275.737V264.271C129.122 262.615 127.779 261.271 126.122 261.271H108.215ZM118.911 268.142L119.99 271.904C120.173 272.543 119.694 273.18 119.029 273.18H115.308C114.643 273.18 114.163 272.543 114.347 271.904L115.426 268.142C115.649 267.365 116.36 266.829 117.168 266.829C117.977 266.829 118.688 267.365 118.911 268.142Z" fill="#0F1E35"/>
<path d="M119.99 271.904L121.913 271.353L121.913 271.353L119.99 271.904ZM118.911 268.142L120.834 267.591V267.591L118.911 268.142ZM114.347 271.904L116.269 272.456V272.456L114.347 271.904ZM115.426 268.142L117.348 268.693V268.693L115.426 268.142ZM107.215 264.271C107.215 263.719 107.663 263.271 108.215 263.271V259.271C105.453 259.271 103.215 261.51 103.215 264.271H107.215ZM107.215 275.737V264.271H103.215V275.737H107.215ZM108.215 276.737C107.663 276.737 107.215 276.29 107.215 275.737H103.215C103.215 278.499 105.453 280.737 108.215 280.737V276.737ZM126.122 276.737H108.215V280.737H126.122V276.737ZM127.122 275.737C127.122 276.29 126.674 276.737 126.122 276.737V280.737C128.883 280.737 131.122 278.499 131.122 275.737H127.122ZM127.122 264.271V275.737H131.122V264.271H127.122ZM126.122 263.271C126.674 263.271 127.122 263.719 127.122 264.271H131.122C131.122 261.51 128.883 259.271 126.122 259.271V263.271ZM108.215 263.271H126.122V259.271H108.215V263.271ZM121.913 271.353L120.834 267.591L116.989 268.693L118.068 272.456L121.913 271.353ZM119.029 275.18C121.023 275.18 122.462 273.27 121.913 271.353L118.068 272.456C117.884 271.817 118.364 271.18 119.029 271.18V275.18ZM115.308 275.18H119.029V271.18H115.308V275.18ZM112.424 271.353C111.874 273.27 113.314 275.18 115.308 275.18V271.18C115.973 271.18 116.452 271.817 116.269 272.456L112.424 271.353ZM113.503 267.591L112.424 271.353L116.269 272.456L117.348 268.693L113.503 267.591ZM117.168 264.829C115.467 264.829 113.972 265.956 113.503 267.591L117.348 268.693C117.325 268.774 117.252 268.829 117.168 268.829V264.829ZM120.834 267.591C120.365 265.956 118.869 264.829 117.168 264.829V268.829C117.085 268.829 117.012 268.774 116.989 268.693L120.834 267.591Z" fill="#0F1E35" mask="url(#path-9-inside-1_5841_6670)"/>
<path fill-rule="evenodd" clip-rule="evenodd" d="M98.043 284.119C98.043 282.462 99.3861 281.119 101.043 281.119H133.294C134.951 281.119 136.294 282.462 136.294 284.119V286.058C136.294 287.715 134.951 289.058 133.294 289.058H101.043C99.3861 289.058 98.043 287.715 98.043 286.058V284.119ZM100.832 284.501C100.832 283.949 101.28 283.501 101.832 283.501H106.207C106.76 283.501 107.207 283.949 107.207 284.501V285.677C107.207 286.229 106.76 286.677 106.207 286.677H101.832C101.28 286.677 100.832 286.229 100.832 285.677V284.501ZM110.598 283.501C110.046 283.501 109.598 283.949 109.598 284.501V285.677C109.598 286.229 110.046 286.677 110.598 286.677H114.973C115.526 286.677 115.973 286.229 115.973 285.677V284.501C115.973 283.949 115.526 283.501 114.973 283.501H110.598ZM118.364 284.501C118.364 283.949 118.812 283.501 119.364 283.501H123.739C124.292 283.501 124.739 283.949 124.739 284.501V285.677C124.739 286.229 124.292 286.677 123.739 286.677H119.364C118.812 286.677 118.364 286.229 118.364 285.677V284.501ZM128.13 283.501C127.578 283.501 127.13 283.949 127.13 284.501V285.677C127.13 286.229 127.578 286.677 128.13 286.677H132.505C133.057 286.677 133.505 286.229 133.505 285.677V284.501C133.505 283.949 133.057 283.501 132.505 283.501H128.13Z" fill="#F84848"/>
<g filter="url(#filter1_dd_5841_6670)">
<path d="M83.1699 139.803C113.098 139.803 137.359 115.632 137.359 85.8169C137.359 56.0013 113.098 31.8311 83.1699 31.8311C53.2419 31.8311 28.9805 56.0013 28.9805 85.8169C28.9805 115.632 53.2419 139.803 83.1699 139.803Z" fill="white"/>
</g>
<path d="M78.6774 68.2842C78.6774 70.4637 76.8917 72.2461 74.6683 72.2461C72.4449 72.2461 70.6592 70.4637 70.6592 68.2842C70.6592 66.1047 72.4449 64.3223 74.6683 64.3223C76.8917 64.3223 78.6774 66.1047 78.6774 68.2842ZM74.6683 76.1069C75.7548 76.1069 76.7904 75.883 77.7304 75.4866H78.1747C80.535 75.4866 82.4342 77.3815 82.4342 79.6966V81.3093C82.4342 81.7754 82.0495 82.17 81.5558 82.17H67.7808C67.2871 82.17 66.9023 81.7754 66.9023 81.3093V79.6966C66.9023 77.3815 68.8015 75.4866 71.1619 75.4866H71.6069C72.5484 75.8825 73.5805 76.1069 74.6683 76.1069Z" fill="#F84848" stroke="#F84848" stroke-width="2"/>
<path d="M81.0437 58.5586H65.918C63.7088 58.5586 61.918 60.3495 61.918 62.5586V83.9332C61.918 86.1424 63.7088 87.9332 65.918 87.9332H96.1693C98.3785 87.9332 100.169 86.1424 100.169 83.9332V62.5586C100.169 60.3495 98.3785 58.5586 96.1693 58.5586H88.5081C87.4036 58.5586 86.5081 59.454 86.5081 60.5586V63.2346C86.5081 64.3392 87.4036 65.2346 88.5081 65.2346H94.0218" stroke="#0F1E35" stroke-width="2"/>
<path d="M95.3871 71.6582H85.8242" stroke="#0F1E35" stroke-width="2" stroke-linecap="round"/>
<path d="M95.387 77.2158H88.2148" stroke="#0F1E35" stroke-width="2" stroke-linecap="round"/>
<path d="M95.387 82.7725H88.2148" stroke="#0F1E35" stroke-width="2" stroke-linecap="round"/>
<ellipse cx="94.1915" cy="64.5131" rx="1.99226" ry="1.98477" fill="white" stroke="#0F1E35" stroke-width="2"/>
<ellipse cx="80.6446" cy="58.1615" rx="1.99226" ry="1.98477" fill="white" stroke="#0F1E35" stroke-width="2"/>
<path d="M54.1905 105.405C53.4905 105.405 52.8771 105.252 52.3505 104.945C51.8305 104.638 51.4205 104.215 51.1205 103.675C50.8271 103.128 50.6805 102.498 50.6805 101.785C50.6805 101.072 50.8271 100.445 51.1205 99.9052C51.4205 99.3585 51.8305 98.9318 52.3505 98.6252C52.8771 98.3185 53.4905 98.1652 54.1905 98.1652C54.8838 98.1652 55.4938 98.3185 56.0205 98.6252C56.5471 98.9318 56.9571 99.3585 57.2505 99.9052C57.5438 100.445 57.6905 101.072 57.6905 101.785C57.6905 102.498 57.5438 103.128 57.2505 103.675C56.9571 104.215 56.5471 104.638 56.0205 104.945C55.4938 105.252 54.8838 105.405 54.1905 105.405ZM54.1905 104.255C54.8571 104.255 55.3871 104.035 55.7805 103.595C56.1805 103.155 56.3805 102.552 56.3805 101.785C56.3805 101.018 56.1805 100.415 55.7805 99.9752C55.3871 99.5352 54.8571 99.3152 54.1905 99.3152C53.5238 99.3152 52.9905 99.5352 52.5905 99.9752C52.1905 100.415 51.9905 101.018 51.9905 101.785C51.9905 102.552 52.1905 103.155 52.5905 103.595C52.9905 104.035 53.5238 104.255 54.1905 104.255ZM58.7906 105.285V100.325H59.9206L60.0206 101.165C60.174 100.872 60.394 100.638 60.6806 100.465C60.974 100.292 61.3173 100.205 61.7106 100.205C62.324 100.205 62.8006 100.398 63.1406 100.785C63.4806 101.172 63.6506 101.738 63.6506 102.485V105.285H62.3706V102.605C62.3706 102.178 62.284 101.852 62.1106 101.625C61.9373 101.398 61.6673 101.285 61.3006 101.285C60.9406 101.285 60.644 101.412 60.4106 101.665C60.184 101.918 60.0706 102.272 60.0706 102.725V105.285H58.7906ZM67.8146 105.405C67.4413 105.405 67.1146 105.335 66.8346 105.195C66.5546 105.055 66.3279 104.858 66.1546 104.605L66.0146 105.285H64.8746V98.0852H66.1546V101.035C66.3146 100.815 66.5246 100.622 66.7846 100.455C67.0513 100.288 67.3946 100.205 67.8146 100.205C68.2813 100.205 68.6979 100.318 69.0646 100.545C69.4313 100.772 69.7213 101.082 69.9346 101.475C70.1479 101.868 70.2546 102.315 70.2546 102.815C70.2546 103.315 70.1479 103.762 69.9346 104.155C69.7213 104.542 69.4313 104.848 69.0646 105.075C68.6979 105.295 68.2813 105.405 67.8146 105.405ZM67.5446 104.285C67.9513 104.285 68.2879 104.148 68.5546 103.875C68.8213 103.602 68.9546 103.248 68.9546 102.815C68.9546 102.382 68.8213 102.025 68.5546 101.745C68.2879 101.465 67.9513 101.325 67.5446 101.325C67.1313 101.325 66.7913 101.465 66.5246 101.745C66.2646 102.018 66.1346 102.372 66.1346 102.805C66.1346 103.238 66.2646 103.595 66.5246 103.875C66.7913 104.148 67.1313 104.285 67.5446 104.285ZM73.778 105.405C73.298 105.405 72.8647 105.295 72.478 105.075C72.098 104.855 71.7947 104.552 71.568 104.165C71.348 103.772 71.238 103.318 71.238 102.805C71.238 102.292 71.3514 101.842 71.578 101.455C71.8047 101.062 72.108 100.755 72.488 100.535C72.8747 100.315 73.308 100.205 73.788 100.205C74.2614 100.205 74.688 100.315 75.068 100.535C75.4547 100.755 75.758 101.062 75.978 101.455C76.2047 101.842 76.318 102.292 76.318 102.805C76.318 103.318 76.2047 103.772 75.978 104.165C75.758 104.552 75.4547 104.855 75.068 105.075C74.6814 105.295 74.2514 105.405 73.778 105.405ZM73.778 104.295C74.1114 104.295 74.4014 104.172 74.648 103.925C74.8947 103.672 75.018 103.298 75.018 102.805C75.018 102.312 74.8947 101.942 74.648 101.695C74.4014 101.442 74.1147 101.315 73.788 101.315C73.448 101.315 73.1547 101.442 72.908 101.695C72.668 101.942 72.548 102.312 72.548 102.805C72.548 103.298 72.668 103.672 72.908 103.925C73.1547 104.172 73.4447 104.295 73.778 104.295ZM79.1725 105.405C78.7458 105.405 78.3958 105.338 78.1225 105.205C77.8492 105.065 77.6458 104.882 77.5125 104.655C77.3792 104.428 77.3125 104.178 77.3125 103.905C77.3125 103.445 77.4925 103.072 77.8525 102.785C78.2125 102.498 78.7525 102.355 79.4725 102.355H80.7325V102.235C80.7325 101.895 80.6358 101.645 80.4425 101.485C80.2492 101.325 80.0092 101.245 79.7225 101.245C79.4625 101.245 79.2358 101.308 79.0425 101.435C78.8492 101.555 78.7292 101.735 78.6825 101.975H77.4325C77.4658 101.615 77.5858 101.302 77.7925 101.035C78.0058 100.768 78.2792 100.565 78.6125 100.425C78.9458 100.278 79.3192 100.205 79.7325 100.205C80.4392 100.205 80.9958 100.382 81.4025 100.735C81.8092 101.088 82.0125 101.588 82.0125 102.235V105.285H80.9225L80.8025 104.485C80.6558 104.752 80.4492 104.972 80.1825 105.145C79.9225 105.318 79.5858 105.405 79.1725 105.405ZM79.4625 104.405C79.8292 104.405 80.1125 104.285 80.3125 104.045C80.5192 103.805 80.6492 103.508 80.7025 103.155H79.6125C79.2725 103.155 79.0292 103.218 78.8825 103.345C78.7358 103.465 78.6625 103.615 78.6625 103.795C78.6625 103.988 78.7358 104.138 78.8825 104.245C79.0292 104.352 79.2225 104.405 79.4625 104.405ZM83.234 105.285V100.325H84.374L84.494 101.255C84.674 100.935 84.9173 100.682 85.224 100.495C85.5373 100.302 85.904 100.205 86.324 100.205V101.555H85.964C85.684 101.555 85.434 101.598 85.214 101.685C84.994 101.772 84.8207 101.922 84.694 102.135C84.574 102.348 84.514 102.645 84.514 103.025V105.285H83.234ZM89.3909 105.405C88.9243 105.405 88.5076 105.292 88.1409 105.065C87.7743 104.838 87.4843 104.528 87.2709 104.135C87.0576 103.742 86.9509 103.295 86.9509 102.795C86.9509 102.295 87.0576 101.852 87.2709 101.465C87.4843 101.072 87.7743 100.765 88.1409 100.545C88.5076 100.318 88.9243 100.205 89.3909 100.205C89.7643 100.205 90.0909 100.275 90.3709 100.415C90.6509 100.555 90.8776 100.752 91.0509 101.005V98.0852H92.3309V105.285H91.1909L91.0509 104.575C90.8909 104.795 90.6776 104.988 90.4109 105.155C90.1509 105.322 89.8109 105.405 89.3909 105.405ZM89.6609 104.285C90.0743 104.285 90.4109 104.148 90.6709 103.875C90.9376 103.595 91.0709 103.238 91.0709 102.805C91.0709 102.372 90.9376 102.018 90.6709 101.745C90.4109 101.465 90.0743 101.325 89.6609 101.325C89.2543 101.325 88.9176 101.462 88.6509 101.735C88.3843 102.008 88.2509 102.362 88.2509 102.795C88.2509 103.228 88.3843 103.585 88.6509 103.865C88.9176 104.145 89.2543 104.285 89.6609 104.285ZM94.3244 99.5552C94.091 99.5552 93.8977 99.4852 93.7444 99.3452C93.5977 99.2052 93.5244 99.0285 93.5244 98.8152C93.5244 98.6018 93.5977 98.4285 93.7444 98.2952C93.8977 98.1552 94.091 98.0852 94.3244 98.0852C94.5577 98.0852 94.7477 98.1552 94.8944 98.2952C95.0477 98.4285 95.1244 98.6018 95.1244 98.8152C95.1244 99.0285 95.0477 99.2052 94.8944 99.3452C94.7477 99.4852 94.5577 99.5552 94.3244 99.5552ZM93.6844 105.285V100.325H94.9644V105.285H93.6844ZM96.3004 105.285V100.325H97.4304L97.5304 101.165C97.6837 100.872 97.9037 100.638 98.1904 100.465C98.4837 100.292 98.8271 100.205 99.2204 100.205C99.8337 100.205 100.31 100.398 100.65 100.785C100.99 101.172 101.16 101.738 101.16 102.485V105.285H99.8804V102.605C99.8804 102.178 99.7937 101.852 99.6204 101.625C99.4471 101.398 99.1771 101.285 98.8104 101.285C98.4504 101.285 98.1537 101.412 97.9204 101.665C97.6937 101.918 97.5804 102.272 97.5804 102.725V105.285H96.3004ZM104.484 103.805C104.244 103.805 104.021 103.778 103.814 103.725L103.444 104.095C103.558 104.155 103.711 104.205 103.904 104.245C104.098 104.285 104.411 104.325 104.844 104.365C105.504 104.425 105.984 104.582 106.284 104.835C106.584 105.088 106.734 105.438 106.734 105.885C106.734 106.178 106.654 106.455 106.494 106.715C106.334 106.982 106.088 107.195 105.754 107.355C105.421 107.522 104.994 107.605 104.474 107.605C103.768 107.605 103.198 107.472 102.764 107.205C102.331 106.945 102.114 106.552 102.114 106.025C102.114 105.578 102.331 105.192 102.764 104.865C102.631 104.805 102.514 104.742 102.414 104.675C102.321 104.608 102.238 104.538 102.164 104.465V104.235L103.034 103.315C102.648 102.975 102.454 102.538 102.454 102.005C102.454 101.672 102.534 101.368 102.694 101.095C102.861 100.822 103.094 100.605 103.394 100.445C103.694 100.285 104.058 100.205 104.484 100.205C104.764 100.205 105.024 100.245 105.264 100.325H107.144V101.105L106.294 101.165C106.428 101.418 106.494 101.698 106.494 102.005C106.494 102.338 106.414 102.642 106.254 102.915C106.094 103.188 105.861 103.405 105.554 103.565C105.254 103.725 104.898 103.805 104.484 103.805ZM104.484 102.825C104.744 102.825 104.958 102.755 105.124 102.615C105.298 102.475 105.384 102.275 105.384 102.015C105.384 101.755 105.298 101.555 105.124 101.415C104.958 101.275 104.744 101.205 104.484 101.205C104.211 101.205 103.991 101.275 103.824 101.415C103.658 101.555 103.574 101.755 103.574 102.015C103.574 102.275 103.658 102.475 103.824 102.615C103.991 102.755 104.211 102.825 104.484 102.825ZM103.284 105.895C103.284 106.142 103.398 106.325 103.624 106.445C103.858 106.572 104.141 106.635 104.474 106.635C104.794 106.635 105.054 106.568 105.254 106.435C105.454 106.308 105.554 106.135 105.554 105.915C105.554 105.735 105.488 105.585 105.354 105.465C105.228 105.345 104.971 105.272 104.584 105.245C104.311 105.225 104.058 105.195 103.824 105.155C103.631 105.262 103.491 105.378 103.404 105.505C103.324 105.632 103.284 105.762 103.284 105.895Z" fill="#646D7A"/>
<g filter="url(#filter2_dd_5841_6670)">
<path d="M333.76 236.944C368.97 236.944 397.512 208.509 397.512 173.432C397.512 138.355 368.97 109.919 333.76 109.919C298.551 109.919 270.008 138.355 270.008 173.432C270.008 208.509 298.551 236.944 333.76 236.944Z" fill="white"/>
</g>
<path d="M188.357 218.134C213.59 218.134 234.046 197.755 234.046 172.616C234.046 147.477 213.59 127.099 188.357 127.099C163.124 127.099 142.668 147.477 142.668 172.616C142.668 197.755 163.124 218.134 188.357 218.134Z" fill="url(#paint0_linear_5841_6670)"/>
<path d="M228.743 179.344C232.231 157.402 217.205 136.797 195.18 133.322C173.155 129.847 152.473 144.817 148.984 166.759C145.496 188.701 160.523 209.306 182.547 212.781C204.572 216.256 225.254 201.286 228.743 179.344Z" fill="white"/>
<g filter="url(#filter3_dd_5841_6670)">
<ellipse cx="188.357" cy="172.616" rx="45.6891" ry="45.5174" fill="white"/>
<path d="M231.046 172.616C231.046 196.087 211.944 215.134 188.357 215.134C164.77 215.134 145.668 196.087 145.668 172.616C145.668 149.145 164.77 130.099 188.357 130.099C211.944 130.099 231.046 149.145 231.046 172.616Z" stroke="url(#paint1_linear_5841_6670)" stroke-width="6"/>
</g>
<path d="M178.955 170V158.8H181.003V163.456H186.027V158.8H188.075V170H186.027V165.12H181.003V170H178.955ZM190.252 170V158.8H194.364C195.26 158.8 195.996 158.955 196.572 159.264C197.159 159.563 197.596 159.973 197.884 160.496C198.172 161.008 198.316 161.579 198.316 162.208C198.316 162.891 198.135 163.515 197.772 164.08C197.42 164.645 196.865 165.056 196.108 165.312L198.428 170H196.076L193.996 165.584H192.3V170H190.252ZM192.3 164.08H194.236C194.919 164.08 195.42 163.915 195.74 163.584C196.06 163.253 196.22 162.816 196.22 162.272C196.22 161.739 196.06 161.312 195.74 160.992C195.431 160.672 194.924 160.512 194.22 160.512H192.3V164.08ZM174.513 186C173.788 186 173.217 185.824 172.801 185.472C172.385 185.12 172.177 184.485 172.177 183.568V179.2H170.801V178.064H172.177L172.353 176.16H173.521V178.064H175.857V179.2H173.521V183.568C173.521 184.069 173.623 184.411 173.825 184.592C174.028 184.763 174.385 184.848 174.897 184.848H175.729V186H174.513ZM180.962 186.192C180.216 186.192 179.544 186.021 178.946 185.68C178.349 185.339 177.874 184.859 177.522 184.24C177.181 183.611 177.01 182.875 177.01 182.032C177.01 181.189 177.186 180.459 177.538 179.84C177.89 179.211 178.365 178.725 178.962 178.384C179.57 178.043 180.248 177.872 180.994 177.872C181.741 177.872 182.413 178.043 183.01 178.384C183.608 178.725 184.077 179.211 184.418 179.84C184.77 180.459 184.946 181.189 184.946 182.032C184.946 182.875 184.77 183.611 184.418 184.24C184.066 184.859 183.586 185.339 182.978 185.68C182.381 186.021 181.709 186.192 180.962 186.192ZM180.962 185.04C181.421 185.04 181.848 184.928 182.242 184.704C182.637 184.48 182.957 184.144 183.202 183.696C183.448 183.248 183.57 182.693 183.57 182.032C183.57 181.371 183.448 180.816 183.202 180.368C182.968 179.92 182.653 179.584 182.258 179.36C181.864 179.136 181.442 179.024 180.994 179.024C180.536 179.024 180.109 179.136 179.714 179.36C179.32 179.584 179 179.92 178.754 180.368C178.509 180.816 178.386 181.371 178.386 182.032C178.386 182.693 178.509 183.248 178.754 183.696C179 184.144 179.314 184.48 179.698 184.704C180.093 184.928 180.514 185.04 180.962 185.04ZM190.431 186.192C189.684 186.192 189.012 186.021 188.415 185.68C187.818 185.339 187.343 184.859 186.991 184.24C186.65 183.611 186.479 182.875 186.479 182.032C186.479 181.189 186.655 180.459 187.007 179.84C187.359 179.211 187.834 178.725 188.431 178.384C189.039 178.043 189.716 177.872 190.463 177.872C191.21 177.872 191.882 178.043 192.479 178.384C193.076 178.725 193.546 179.211 193.887 179.84C194.239 180.459 194.415 181.189 194.415 182.032C194.415 182.875 194.239 183.611 193.887 184.24C193.535 184.859 193.055 185.339 192.447 185.68C191.85 186.021 191.178 186.192 190.431 186.192ZM190.431 185.04C190.89 185.04 191.316 184.928 191.711 184.704C192.106 184.48 192.426 184.144 192.671 183.696C192.916 183.248 193.039 182.693 193.039 182.032C193.039 181.371 192.916 180.816 192.671 180.368C192.436 179.92 192.122 179.584 191.727 179.36C191.332 179.136 190.911 179.024 190.463 179.024C190.004 179.024 189.578 179.136 189.183 179.36C188.788 179.584 188.468 179.92 188.223 180.368C187.978 180.816 187.855 181.371 187.855 182.032C187.855 182.693 187.978 183.248 188.223 183.696C188.468 184.144 188.783 184.48 189.167 184.704C189.562 184.928 189.983 185.04 190.431 185.04ZM196.284 186V174.48H197.628V186H196.284ZM202.871 186.192C201.921 186.192 201.132 185.952 200.503 185.472C199.873 184.992 199.505 184.341 199.399 183.52H200.775C200.86 183.936 201.079 184.299 201.431 184.608C201.793 184.907 202.279 185.056 202.887 185.056C203.452 185.056 203.868 184.939 204.135 184.704C204.401 184.459 204.535 184.171 204.535 183.84C204.535 183.36 204.359 183.04 204.007 182.88C203.665 182.72 203.18 182.576 202.551 182.448C202.124 182.363 201.697 182.24 201.271 182.08C200.844 181.92 200.487 181.696 200.199 181.408C199.911 181.109 199.767 180.72 199.767 180.24C199.767 179.547 200.023 178.981 200.535 178.544C201.057 178.096 201.761 177.872 202.647 177.872C203.489 177.872 204.177 178.085 204.711 178.512C205.255 178.928 205.569 179.525 205.655 180.304H204.327C204.273 179.899 204.097 179.584 203.799 179.36C203.511 179.125 203.121 179.008 202.631 179.008C202.151 179.008 201.777 179.109 201.511 179.312C201.255 179.515 201.127 179.781 201.127 180.112C201.127 180.432 201.292 180.683 201.623 180.864C201.964 181.045 202.423 181.2 202.999 181.328C203.489 181.435 203.953 181.568 204.391 181.728C204.839 181.877 205.201 182.107 205.479 182.416C205.767 182.715 205.911 183.152 205.911 183.728C205.921 184.443 205.649 185.035 205.095 185.504C204.551 185.963 203.809 186.192 202.871 186.192Z" fill="#262626"/>
<path d="M428.607 246.952C429.376 242.042 426.004 237.441 421.076 236.675C416.148 235.908 411.529 239.268 410.76 244.177C409.991 249.087 413.362 253.689 418.291 254.455C423.219 255.221 427.838 251.862 428.607 246.952Z" fill="#FAFAFA"/>
<path d="M45.8232 195.999C48.4945 184.724 41.4849 173.426 30.1668 170.765C18.8488 168.103 7.50814 175.087 4.83683 186.362C2.16552 197.638 9.17511 208.936 20.4932 211.597C31.8113 214.258 43.1519 207.275 45.8232 195.999Z" fill="#FAFAFA"/>
<path d="M285.566 331.54C294.159 331.54 301.125 324.601 301.125 316.04C301.125 307.48 294.159 300.54 285.566 300.54C276.974 300.54 270.008 307.48 270.008 316.04C270.008 324.601 276.974 331.54 285.566 331.54Z" fill="#FAFAFA"/>
<path d="M196.543 45.5616C209.171 45.5616 219.409 35.3623 219.409 22.7808C219.409 10.1993 209.171 0 196.543 0C183.914 0 173.676 10.1993 173.676 22.7808C173.676 35.3623 183.914 45.5616 196.543 45.5616Z" fill="#FAFAFA"/>
<path d="M176.849 333.328C164.783 346.906 148.401 355.942 130.445 358.923C112.49 361.904 94.0515 358.65 78.2172 349.704C62.383 340.759 50.114 326.666 43.4646 309.784C36.8152 292.903 36.189 274.258 41.6908 256.972" stroke="#676767" stroke-miterlimit="10" stroke-linecap="round"/>
<path d="M41.6138 259.46C42.9927 259.46 44.1105 258.346 44.1105 256.973C44.1105 255.599 42.9927 254.485 41.6138 254.485C40.235 254.485 39.1172 255.599 39.1172 256.973C39.1172 258.346 40.235 259.46 41.6138 259.46Z" fill="#676767"/>
<path d="M32.4609 143.155C20.7731 132.901 12.4984 119.343 8.739 104.287C4.97961 89.2302 5.91393 73.3901 11.4175 58.876C16.9211 44.362 26.7328 31.8628 39.5456 23.0434C52.3585 14.2239 67.5644 9.50281 83.1381 9.50879" stroke="#676767" stroke-miterlimit="10" stroke-linecap="round"/>
<path d="M83.1412 11.9951C84.5201 11.9951 85.6379 10.8815 85.6379 9.50778C85.6379 8.1341 84.5201 7.02051 83.1412 7.02051C81.7623 7.02051 80.6445 8.1341 80.6445 9.50778C80.6445 10.8815 81.7623 11.9951 83.1412 11.9951Z" fill="#676767"/>
<path d="M159.779 85.8564C159.796 97.3782 157.184 108.753 152.141 119.122" stroke="#676767" stroke-miterlimit="10" stroke-linecap="round"/>
<path d="M127.325 148.252C114.407 157.354 98.9678 162.229 83.1455 162.204C80.5992 162.204 78.0778 162.08 75.5977 161.841" stroke="url(#paint2_linear_5841_6670)" stroke-width="1.05" stroke-miterlimit="10" stroke-linecap="round"/>
<path d="M162.261 85.8565C162.261 86.3452 162.116 86.8229 161.843 87.2293C161.571 87.6356 161.183 87.9523 160.73 88.1393C160.277 88.3263 159.778 88.3752 159.297 88.2799C158.816 88.1845 158.374 87.9492 158.027 87.6037C157.68 87.2581 157.444 86.8179 157.348 86.3386C157.253 85.8593 157.302 85.3625 157.49 84.911C157.677 84.4595 157.995 84.0737 158.403 83.8022C158.811 83.5307 159.29 83.3857 159.781 83.3857C160.439 83.3857 161.069 83.6461 161.535 84.1094C162 84.5728 162.261 85.2012 162.261 85.8565Z" fill="#676767"/>
<path d="M275.515 246.36C258.578 232.908 246.854 214.015 242.348 192.908" stroke="#676767" stroke-miterlimit="10" stroke-linecap="round"/>
<path d="M317.422 81.8026C330.194 79.5382 343.299 79.9457 355.904 82.9993C368.509 86.0529 380.338 91.6857 390.641 99.5398C400.943 107.394 409.492 117.297 415.745 128.621C421.997 139.944 425.817 152.44 426.961 165.313C428.104 178.186 426.547 191.156 422.388 203.397C418.229 215.639 411.559 226.884 402.802 236.419C394.045 245.954 383.392 253.569 371.521 258.781C359.65 263.993 346.821 266.687 333.849 266.693" stroke="#676767" stroke-miterlimit="10" stroke-linecap="round"/>
<path d="M336.335 266.693C336.335 267.182 336.19 267.66 335.917 268.066C335.645 268.472 335.257 268.789 334.804 268.976C334.351 269.163 333.852 269.212 333.371 269.117C332.89 269.021 332.448 268.786 332.101 268.441C331.755 268.095 331.518 267.655 331.423 267.175C331.327 266.696 331.376 266.199 331.564 265.748C331.752 265.296 332.069 264.911 332.477 264.639C332.885 264.368 333.365 264.223 333.855 264.223C334.513 264.223 335.144 264.483 335.609 264.946C336.074 265.41 336.335 266.038 336.335 266.693Z" fill="#676767"/>
<path d="M347.167 151.645H333.926" stroke="#F84848" stroke-width="2" stroke-linecap="round"/>
<path d="M347.168 156.738H337.605" stroke="#F84848" stroke-width="2" stroke-linecap="round"/>
<path d="M347.168 161.833H337.605" stroke="#F84848" stroke-width="2" stroke-linecap="round"/>
<path d="M328.408 167.655H315.902V169.517C315.902 171.711 317.669 173.495 319.862 173.517L348.275 173.801C350.499 173.823 352.315 172.026 352.315 169.801V167.655H339.442L337.603 169.111H330.247L328.408 167.655Z" fill="#E6E6E6"/>
<path d="M327.462 153.464C327.462 154.696 326.43 155.739 325.1 155.739C323.769 155.739 322.737 154.696 322.737 153.464C322.737 152.233 323.769 151.189 325.1 151.189C326.43 151.189 327.462 152.233 327.462 153.464ZM325.1 158.967C325.849 158.967 326.565 158.82 327.218 158.558H327.454C328.876 158.558 329.984 159.675 329.984 160.997V162.061C329.984 162.162 329.893 162.289 329.723 162.289H320.476C320.307 162.289 320.215 162.162 320.215 162.061V160.997C320.215 159.675 321.324 158.558 322.746 158.558H322.982C323.635 158.819 324.349 158.967 325.1 158.967Z" fill="#F84848" stroke="#F84848" stroke-width="2"/>
<rect x="315.801" y="146.095" width="36.2514" height="27.11" rx="4" stroke="#0F1E35" stroke-width="2"/>
<path d="M316.273 167.655H328.156C328.412 167.655 328.658 167.753 328.844 167.93L329.801 168.836C329.986 169.013 330.233 169.111 330.489 169.111H337.367C337.623 169.111 337.869 169.013 338.055 168.836L339.012 167.93C339.197 167.753 339.444 167.655 339.7 167.655H351.582" stroke="#0F1E35" stroke-width="2"/>
<path d="M324.363 180.026H343.489" stroke="#0F1E35" stroke-width="2" stroke-linecap="round"/>
<path d="M328.776 173.477L327.305 180.026" stroke="#0F1E35" stroke-width="2"/>
<path d="M339.076 173.477L340.547 180.026" stroke="#0F1E35" stroke-width="2"/>
<path d="M297.418 197.379V190.379H299.808C300.628 190.379 301.302 190.526 301.828 190.819C302.362 191.106 302.755 191.512 303.008 192.039C303.268 192.559 303.398 193.172 303.398 193.879C303.398 194.586 303.268 195.202 303.008 195.729C302.755 196.249 302.362 196.656 301.828 196.949C301.302 197.236 300.628 197.379 299.808 197.379H297.418ZM298.698 196.279H299.748C300.335 196.279 300.798 196.186 301.138 195.999C301.478 195.806 301.722 195.532 301.868 195.179C302.015 194.819 302.088 194.386 302.088 193.879C302.088 193.379 302.015 192.949 301.868 192.589C301.722 192.229 301.478 191.952 301.138 191.759C300.798 191.566 300.335 191.469 299.748 191.469H298.698V196.279ZM306.208 197.499C305.781 197.499 305.431 197.432 305.158 197.299C304.884 197.159 304.681 196.976 304.548 196.749C304.414 196.522 304.348 196.272 304.348 195.999C304.348 195.539 304.528 195.166 304.888 194.879C305.248 194.592 305.788 194.449 306.508 194.449H307.768V194.329C307.768 193.989 307.671 193.739 307.478 193.579C307.284 193.419 307.044 193.339 306.758 193.339C306.498 193.339 306.271 193.402 306.078 193.529C305.884 193.649 305.764 193.829 305.718 194.069H304.468C304.501 193.709 304.621 193.396 304.828 193.129C305.041 192.862 305.314 192.659 305.648 192.519C305.981 192.372 306.354 192.299 306.768 192.299C307.474 192.299 308.031 192.476 308.438 192.829C308.844 193.182 309.048 193.682 309.048 194.329V197.379H307.958L307.838 196.579C307.691 196.846 307.484 197.066 307.218 197.239C306.958 197.412 306.621 197.499 306.208 197.499ZM306.498 196.499C306.864 196.499 307.148 196.379 307.348 196.139C307.554 195.899 307.684 195.602 307.738 195.249H306.648C306.308 195.249 306.064 195.312 305.918 195.439C305.771 195.559 305.698 195.709 305.698 195.889C305.698 196.082 305.771 196.232 305.918 196.339C306.064 196.446 306.258 196.499 306.498 196.499ZM312.411 197.379C311.891 197.379 311.474 197.252 311.161 196.999C310.847 196.746 310.691 196.296 310.691 195.649V193.489H309.841V192.419H310.691L310.841 191.089H311.971V192.419H313.311V193.489H311.971V195.659C311.971 195.899 312.021 196.066 312.121 196.159C312.227 196.246 312.407 196.289 312.661 196.289H313.281V197.379H312.411ZM316.12 197.499C315.693 197.499 315.343 197.432 315.07 197.299C314.796 197.159 314.593 196.976 314.46 196.749C314.326 196.522 314.26 196.272 314.26 195.999C314.26 195.539 314.44 195.166 314.8 194.879C315.16 194.592 315.7 194.449 316.42 194.449H317.68V194.329C317.68 193.989 317.583 193.739 317.39 193.579C317.196 193.419 316.956 193.339 316.67 193.339C316.41 193.339 316.183 193.402 315.99 193.529C315.796 193.649 315.676 193.829 315.63 194.069H314.38C314.413 193.709 314.533 193.396 314.74 193.129C314.953 192.862 315.226 192.659 315.56 192.519C315.893 192.372 316.266 192.299 316.68 192.299C317.386 192.299 317.943 192.476 318.35 192.829C318.756 193.182 318.96 193.682 318.96 194.329V197.379H317.87L317.75 196.579C317.603 196.846 317.396 197.066 317.13 197.239C316.87 197.412 316.533 197.499 316.12 197.499ZM316.41 196.499C316.776 196.499 317.06 196.379 317.26 196.139C317.466 195.899 317.596 195.602 317.65 195.249H316.56C316.22 195.249 315.976 195.312 315.83 195.439C315.683 195.559 315.61 195.709 315.61 195.889C315.61 196.082 315.683 196.232 315.83 196.339C315.976 196.446 316.17 196.499 316.41 196.499ZM325.294 197.499C324.781 197.499 324.317 197.399 323.904 197.199C323.491 196.992 323.161 196.682 322.914 196.269C322.674 195.856 322.554 195.332 322.554 194.699V190.379H323.834V194.709C323.834 195.256 323.964 195.662 324.224 195.929C324.491 196.196 324.857 196.329 325.324 196.329C325.784 196.329 326.147 196.196 326.414 195.929C326.681 195.662 326.814 195.256 326.814 194.709V190.379H328.094V194.699C328.094 195.332 327.967 195.856 327.714 196.269C327.461 196.682 327.121 196.992 326.694 197.199C326.274 197.399 325.807 197.499 325.294 197.499ZM329.371 199.579V192.419H330.511L330.651 193.129C330.811 192.909 331.021 192.716 331.281 192.549C331.547 192.382 331.891 192.299 332.311 192.299C332.777 192.299 333.194 192.412 333.561 192.639C333.927 192.866 334.217 193.176 334.431 193.569C334.644 193.962 334.751 194.409 334.751 194.909C334.751 195.409 334.644 195.856 334.431 196.249C334.217 196.636 333.927 196.942 333.561 197.169C333.194 197.389 332.777 197.499 332.311 197.499C331.937 197.499 331.611 197.429 331.331 197.289C331.051 197.149 330.824 196.952 330.651 196.699V199.579H329.371ZM332.041 196.379C332.447 196.379 332.784 196.242 333.051 195.969C333.317 195.696 333.451 195.342 333.451 194.909C333.451 194.476 333.317 194.119 333.051 193.839C332.784 193.559 332.447 193.419 332.041 193.419C331.627 193.419 331.287 193.559 331.021 193.839C330.761 194.112 330.631 194.466 330.631 194.899C330.631 195.332 330.761 195.689 331.021 195.969C331.287 196.242 331.627 196.379 332.041 196.379ZM338.174 197.499C337.707 197.499 337.291 197.386 336.924 197.159C336.557 196.932 336.267 196.622 336.054 196.229C335.841 195.836 335.734 195.389 335.734 194.889C335.734 194.389 335.841 193.946 336.054 193.559C336.267 193.166 336.557 192.859 336.924 192.639C337.291 192.412 337.707 192.299 338.174 192.299C338.547 192.299 338.874 192.369 339.154 192.509C339.434 192.649 339.661 192.846 339.834 193.099V190.179H341.114V197.379H339.974L339.834 196.669C339.674 196.889 339.461 197.082 339.194 197.249C338.934 197.416 338.594 197.499 338.174 197.499ZM338.444 196.379C338.857 196.379 339.194 196.242 339.454 195.969C339.721 195.689 339.854 195.332 339.854 194.899C339.854 194.466 339.721 194.112 339.454 193.839C339.194 193.559 338.857 193.419 338.444 193.419C338.037 193.419 337.701 193.556 337.434 193.829C337.167 194.102 337.034 194.456 337.034 194.889C337.034 195.322 337.167 195.679 337.434 195.959C337.701 196.239 338.037 196.379 338.444 196.379ZM344.128 197.499C343.701 197.499 343.351 197.432 343.078 197.299C342.804 197.159 342.601 196.976 342.468 196.749C342.334 196.522 342.268 196.272 342.268 195.999C342.268 195.539 342.448 195.166 342.808 194.879C343.168 194.592 343.708 194.449 344.428 194.449H345.688V194.329C345.688 193.989 345.591 193.739 345.398 193.579C345.204 193.419 344.964 193.339 344.678 193.339C344.418 193.339 344.191 193.402 343.998 193.529C343.804 193.649 343.684 193.829 343.638 194.069H342.388C342.421 193.709 342.541 193.396 342.748 193.129C342.961 192.862 343.234 192.659 343.568 192.519C343.901 192.372 344.274 192.299 344.688 192.299C345.394 192.299 345.951 192.476 346.358 192.829C346.764 193.182 346.968 193.682 346.968 194.329V197.379H345.878L345.758 196.579C345.611 196.846 345.404 197.066 345.138 197.239C344.878 197.412 344.541 197.499 344.128 197.499ZM344.418 196.499C344.784 196.499 345.068 196.379 345.268 196.139C345.474 195.899 345.604 195.602 345.658 195.249H344.568C344.228 195.249 343.984 195.312 343.838 195.439C343.691 195.559 343.618 195.709 343.618 195.889C343.618 196.082 343.691 196.232 343.838 196.339C343.984 196.446 344.178 196.499 344.418 196.499ZM350.331 197.379C349.811 197.379 349.394 197.252 349.081 196.999C348.767 196.746 348.611 196.296 348.611 195.649V193.489H347.761V192.419H348.611L348.761 191.089H349.891V192.419H351.231V193.489H349.891V195.659C349.891 195.899 349.941 196.066 350.041 196.159C350.147 196.246 350.327 196.289 350.581 196.289H351.201V197.379H350.331ZM353.02 191.649C352.786 191.649 352.593 191.579 352.44 191.439C352.293 191.299 352.22 191.122 352.22 190.909C352.22 190.696 352.293 190.522 352.44 190.389C352.593 190.249 352.786 190.179 353.02 190.179C353.253 190.179 353.443 190.249 353.59 190.389C353.743 190.522 353.82 190.696 353.82 190.909C353.82 191.122 353.743 191.299 353.59 191.439C353.443 191.579 353.253 191.649 353.02 191.649ZM352.38 197.379V192.419H353.66V197.379H352.38ZM354.996 197.379V192.419H356.126L356.226 193.259C356.379 192.966 356.599 192.732 356.886 192.559C357.179 192.386 357.522 192.299 357.916 192.299C358.529 192.299 359.006 192.492 359.346 192.879C359.686 193.266 359.856 193.832 359.856 194.579V197.379H358.576V194.699C358.576 194.272 358.489 193.946 358.316 193.719C358.142 193.492 357.872 193.379 357.506 193.379C357.146 193.379 356.849 193.506 356.616 193.759C356.389 194.012 356.276 194.366 356.276 194.819V197.379H354.996ZM363.18 195.899C362.94 195.899 362.716 195.872 362.51 195.819L362.14 196.189C362.253 196.249 362.406 196.299 362.6 196.339C362.793 196.379 363.106 196.419 363.54 196.459C364.2 196.519 364.68 196.676 364.98 196.929C365.28 197.182 365.43 197.532 365.43 197.979C365.43 198.272 365.35 198.549 365.19 198.809C365.03 199.076 364.783 199.289 364.45 199.449C364.116 199.616 363.69 199.699 363.17 199.699C362.463 199.699 361.893 199.566 361.46 199.299C361.026 199.039 360.81 198.646 360.81 198.119C360.81 197.672 361.026 197.286 361.46 196.959C361.326 196.899 361.21 196.836 361.11 196.769C361.016 196.702 360.933 196.632 360.86 196.559V196.329L361.73 195.409C361.343 195.069 361.15 194.632 361.15 194.099C361.15 193.766 361.23 193.462 361.39 193.189C361.556 192.916 361.79 192.699 362.09 192.539C362.39 192.379 362.753 192.299 363.18 192.299C363.46 192.299 363.72 192.339 363.96 192.419H365.84V193.199L364.99 193.259C365.123 193.512 365.19 193.792 365.19 194.099C365.19 194.432 365.11 194.736 364.95 195.009C364.79 195.282 364.556 195.499 364.25 195.659C363.95 195.819 363.593 195.899 363.18 195.899ZM363.18 194.919C363.44 194.919 363.653 194.849 363.82 194.709C363.993 194.569 364.08 194.369 364.08 194.109C364.08 193.849 363.993 193.649 363.82 193.509C363.653 193.369 363.44 193.299 363.18 193.299C362.906 193.299 362.686 193.369 362.52 193.509C362.353 193.649 362.27 193.849 362.27 194.109C362.27 194.369 362.353 194.569 362.52 194.709C362.686 194.849 362.906 194.919 363.18 194.919ZM361.98 197.989C361.98 198.236 362.093 198.419 362.32 198.539C362.553 198.666 362.836 198.729 363.17 198.729C363.49 198.729 363.75 198.662 363.95 198.529C364.15 198.402 364.25 198.229 364.25 198.009C364.25 197.829 364.183 197.679 364.05 197.559C363.923 197.439 363.666 197.366 363.28 197.339C363.006 197.319 362.753 197.289 362.52 197.249C362.326 197.356 362.186 197.472 362.1 197.599C362.02 197.726 361.98 197.856 361.98 197.989Z" fill="#646D7A"/>
<defs>
<filter id="filter0_dd_5841_6670" x="32.3555" y="196.018" width="193.629" height="193.143" filterUnits="userSpaceOnUse" color-interpolation-filters="sRGB">
<feFlood flood-opacity="0" result="BackgroundImageFix"/>
<feColorMatrix in="SourceAlpha" type="matrix" values="0 0 0 0 0 0 0 0 0 0 0 0 0 0 0 0 0 0 127 0" result="hardAlpha"/>
<feOffset dx="12" dy="12"/>
<feGaussianBlur stdDeviation="16"/>
<feComposite in2="hardAlpha" operator="out"/>
<feColorMatrix type="matrix" values="0 0 0 0 0 0 0 0 0 0 0 0 0 0 0 0 0 0 0.05 0"/>
<feBlend mode="normal" in2="BackgroundImageFix" result="effect1_dropShadow_5841_6670"/>
<feColorMatrix in="SourceAlpha" type="matrix" values="0 0 0 0 0 0 0 0 0 0 0 0 0 0 0 0 0 0 127 0" result="hardAlpha"/>
<feOffset dy="4"/>
<feGaussianBlur stdDeviation="2"/>
<feComposite in2="hardAlpha" operator="out"/>
<feColorMatrix type="matrix" values="0 0 0 0 0 0 0 0 0 0 0 0 0 0 0 0 0 0 0.1 0"/>
<feBlend mode="normal" in2="effect1_dropShadow_5841_6670" result="effect2_dropShadow_5841_6670"/>
<feBlend mode="normal" in="SourceGraphic" in2="effect2_dropShadow_5841_6670" result="shape"/>
</filter>
<filter id="filter1_dd_5841_6670" x="8.98047" y="11.8311" width="172.379" height="171.972" filterUnits="userSpaceOnUse" color-interpolation-filters="sRGB">
<feFlood flood-opacity="0" result="BackgroundImageFix"/>
<feColorMatrix in="SourceAlpha" type="matrix" values="0 0 0 0 0 0 0 0 0 0 0 0 0 0 0 0 0 0 127 0" result="hardAlpha"/>
<feOffset dx="12" dy="12"/>
<feGaussianBlur stdDeviation="16"/>
<feComposite in2="hardAlpha" operator="out"/>
<feColorMatrix type="matrix" values="0 0 0 0 0 0 0 0 0 0 0 0 0 0 0 0 0 0 0.05 0"/>
<feBlend mode="normal" in2="BackgroundImageFix" result="effect1_dropShadow_5841_6670"/>
<feColorMatrix in="SourceAlpha" type="matrix" values="0 0 0 0 0 0 0 0 0 0 0 0 0 0 0 0 0 0 127 0" result="hardAlpha"/>
<feOffset dy="4"/>
<feGaussianBlur stdDeviation="2"/>
<feComposite in2="hardAlpha" operator="out"/>
<feColorMatrix type="matrix" values="0 0 0 0 0 0 0 0 0 0 0 0 0 0 0 0 0 0 0.1 0"/>
<feBlend mode="normal" in2="effect1_dropShadow_5841_6670" result="effect2_dropShadow_5841_6670"/>
<feBlend mode="normal" in="SourceGraphic" in2="effect2_dropShadow_5841_6670" result="shape"/>
</filter>
<filter id="filter2_dd_5841_6670" x="250.008" y="89.9189" width="191.504" height="191.025" filterUnits="userSpaceOnUse" color-interpolation-filters="sRGB">
<feFlood flood-opacity="0" result="BackgroundImageFix"/>
<feColorMatrix in="SourceAlpha" type="matrix" values="0 0 0 0 0 0 0 0 0 0 0 0 0 0 0 0 0 0 127 0" result="hardAlpha"/>
<feOffset dx="12" dy="12"/>
<feGaussianBlur stdDeviation="16"/>
<feComposite in2="hardAlpha" operator="out"/>
<feColorMatrix type="matrix" values="0 0 0 0 0 0 0 0 0 0 0 0 0 0 0 0 0 0 0.05 0"/>
<feBlend mode="normal" in2="BackgroundImageFix" result="effect1_dropShadow_5841_6670"/>
<feColorMatrix in="SourceAlpha" type="matrix" values="0 0 0 0 0 0 0 0 0 0 0 0 0 0 0 0 0 0 127 0" result="hardAlpha"/>
<feOffset dy="4"/>
<feGaussianBlur stdDeviation="2"/>
<feComposite in2="hardAlpha" operator="out"/>
<feColorMatrix type="matrix" values="0 0 0 0 0 0 0 0 0 0 0 0 0 0 0 0 0 0 0.1 0"/>
<feBlend mode="normal" in2="effect1_dropShadow_5841_6670" result="effect2_dropShadow_5841_6670"/>
<feBlend mode="normal" in="SourceGraphic" in2="effect2_dropShadow_5841_6670" result="shape"/>
</filter>
<filter id="filter3_dd_5841_6670" x="122.668" y="107.099" width="155.379" height="155.035" filterUnits="userSpaceOnUse" color-interpolation-filters="sRGB">
<feFlood flood-opacity="0" result="BackgroundImageFix"/>
<feColorMatrix in="SourceAlpha" type="matrix" values="0 0 0 0 0 0 0 0 0 0 0 0 0 0 0 0 0 0 127 0" result="hardAlpha"/>
<feOffset dx="12" dy="12"/>
<feGaussianBlur stdDeviation="16"/>
<feComposite in2="hardAlpha" operator="out"/>
<feColorMatrix type="matrix" values="0 0 0 0 0 0 0 0 0 0 0 0 0 0 0 0 0 0 0.05 0"/>
<feBlend mode="normal" in2="BackgroundImageFix" result="effect1_dropShadow_5841_6670"/>
<feColorMatrix in="SourceAlpha" type="matrix" values="0 0 0 0 0 0 0 0 0 0 0 0 0 0 0 0 0 0 127 0" result="hardAlpha"/>
<feOffset dy="4"/>
<feGaussianBlur stdDeviation="2"/>
<feComposite in2="hardAlpha" operator="out"/>
<feColorMatrix type="matrix" values="0 0 0 0 0 0 0 0 0 0 0 0 0 0 0 0 0 0 0.1 0"/>
<feBlend mode="normal" in2="effect1_dropShadow_5841_6670" result="effect2_dropShadow_5841_6670"/>
<feBlend mode="normal" in="SourceGraphic" in2="effect2_dropShadow_5841_6670" result="shape"/>
</filter>
<linearGradient id="paint0_linear_5841_6670" x1="142.668" y1="127.099" x2="237.393" y2="130.726" gradientUnits="userSpaceOnUse">
<stop stop-color="#D33F49"/>
<stop offset="1" stop-color="#FE7575"/>
</linearGradient>
<linearGradient id="paint1_linear_5841_6670" x1="142.668" y1="127.099" x2="237.393" y2="130.726" gradientUnits="userSpaceOnUse">
<stop stop-color="#D33F49"/>
<stop offset="1" stop-color="#FE7575"/>
</linearGradient>
<linearGradient id="paint2_linear_5841_6670" x1="75.1595" y1="155.228" x2="127.755" y2="155.228" gradientUnits="userSpaceOnUse">
<stop stop-color="#808285"/>
<stop offset="1" stop-color="#58595B"/>
</linearGradient>
</defs>
</svg>
